<svg width="737" height="685" viewBox="0 0 737 685" fill="none" xmlns="http://www.w3.org/2000/svg"><g clip-path="url(#clip0_534_1310)"><g opacity=".46"><path opacity=".46" d="M570.588 100.912C634.701 175.366 666.358 282.456 625.518 392.335 615.292 419.836 595.822 444.899 571.232 454.664 541.338 466.544 510.891 454.526 480.966 449.743c-93.992-14.992-192.107 43.121-288.536 45.742C153.26 496.558 113.447 487.606 84.4264 460.918c-35.6588-32.774-50.5601-89.507-45.0258-144.585 8.6005-85.429 62.1044-165.77 119.9614-222.6563C213.739 40.2238 282.405 5.94772 350.963.597837 431.096-5.61048 513.651 34.7819 570.588 100.912z" fill="#d1c7ff"/></g><path d="M276.516 241.496 290.314 246.095 292 285.261 291.862 287.484h21.432S307.745 231.041 307.162 229.233c0 0-31.918-7.328-32.47-7.92600000000002C274.646 221.369 263.777 216.724 262.642 218.226 260.864 220.587 246.085 262.451 238.834 287.484h20.804l16.878-45.988z" fill="#373c7a"/><g opacity=".1"><path opacity=".1" d="M397.903 572.101c187.277.0 339.096-10.117 339.096-22.596S585.18 526.91 397.903 526.91c-187.278.0-339.0964 10.116-339.0964 22.595S210.625 572.101 397.903 572.101z" fill="#000"/></g><path d="M502.352 174.584C499.363 174.584 496.45 174.921 493.644 175.55 485.212 154.258 464.424 139.204 440.125 139.204s-45.071 15.054-53.519 36.346C383.801 174.921 380.888 174.584 377.899 174.584c-22.015.0-39.844 17.843-39.844 39.841C338.055 215.682 338.116 216.908 338.239 218.134 338.131 218.226 338.055 218.334 338.055 218.426c0 2.80500000000001 45.654 5.089 101.978 5.089C496.358 223.515 542.012 221.246 542.012 218.426 542.15 217.107 542.211 215.774 542.211 214.425 542.196 192.427 524.351 174.584 502.352 174.584z" fill="#eae0ff"/><path d="M164.297 225.891C161.308 225.891 158.395 226.228 155.59 226.857 147.158 205.564 126.37 190.511 102.071 190.511c-24.2992.0-45.0721 15.053-53.5192 36.346C45.7463 226.228 42.8335 225.891 39.8441 225.891 17.8447 225.891.0 243.734.0 265.731.0 266.988.0613221 268.215.183966 269.441.0613221 269.533.0 269.64.0 269.732.0 272.538 45.6543 274.822 101.979 274.822 158.303 274.822 203.957 272.553 203.957 269.732 204.095 268.414 204.157 267.08 204.157 265.731c0-21.997-17.845-39.84-39.86-39.84z" fill="#eae0ff"/><path d="M674.235 259.554C671.245 259.554 668.333 259.891 665.527 260.519 657.095 239.227 636.307 224.174 612.008 224.174 587.709 224.174 566.936 239.227 558.489 260.519 555.684 259.891 552.771 259.554 549.782 259.554 527.767 259.554 509.938 277.397 509.938 299.394 509.938 300.651 509.999 301.878 510.121 303.104 510.014 303.196 509.938 303.303 509.938 303.395 509.938 306.2 555.592 308.485 611.916 308.485 668.241 308.485 713.895 306.216 713.895 303.395 714.033 302.077 714.094 300.743 714.094 299.394c0-21.997-17.845-39.84-39.859-39.84z" fill="#eae0ff"/><path d="M301.704 52.6098C298.714 52.6098 295.801 52.947 292.996 53.5755 284.564 32.2833 263.776 17.23 239.477 17.23s-45.072 15.0533-53.519 36.3455C183.153 52.947 180.24 52.6098 177.25 52.6098c-22.014.0-39.844 17.8431-39.844 39.8405C137.406 93.7073 137.468 94.9337 137.59 96.16 137.483 96.252 137.406 96.3593 137.406 96.4512c0 2.8053 45.655 5.0898 101.979 5.0898 56.324.0 101.979-2.2692 101.979-5.0898C341.502 95.1329 341.563 93.7993 341.563 92.4503c0-21.9974-17.845-39.8405-39.859-39.8405z" fill="#eae0ff"/><path d="M154.102 554.365H523.169L474.204 274.699H75.625l43.891 250.602C122.444 542.117 137.039 554.365 154.102 554.365z" fill="#d5d1de"/><path d="M75.625 274.699l45.072 257.346H130.248L85.1759 274.699H75.625z" fill="#8a91e6"/><path d="M681.825 554.365H150.99c-15.254.0-28.3-10.961-30.937-25.9830000000001l-2.008-11.497H699.517V536.69C699.501 546.455 691.591 554.365 681.825 554.365z" fill="#d5d1de"/><path d="M324.302 536.69V516.885H118.029L121.525 536.874C123.303 546.991 132.087 554.38 142.359 554.38H341.978C332.227 554.365 324.302 546.455 324.302 536.69z" fill="#8a91e6"/><path d="M119.056 522.725H699.501V516.885H118.029L119.056 522.725z" fill="#8a91e6"/><path d="M501.292 503.625l-37.79-215.789H102.346L140.12 503.625H501.292z" fill="#7b8dff"/><path d="M289.364 282.21 289.088 280.631C288.919 279.635 288.045 278.899 287.033 278.899H281.652C280.349 278.899 279.368 280.064 279.598 281.352L279.874 282.931C280.043 283.927 280.916 284.663 281.928 284.663H287.309C288.597 284.648 289.578 283.483 289.364 282.21z" fill="#7e72ac"/><path d="M182.188 532.045H157.613L158.87 539.219h24.575L182.188 532.045z" fill="#7e72ac"/><path d="M216.221 532.045H191.646L192.904 539.219h24.574L216.221 532.045z" fill="#7e72ac"/><path d="M501.522 497.493H151.618L118.289 304.944H468.193l33.329 192.549z" fill="#310047"/><path d="M469.712 313.574H106.623L102.07 287.836H465.174L469.712 313.574z" fill="#2a2e5e"/><path d="M491.664 457.438H436.888L414.49 330.436h54.776l22.398 127.002z" fill="#39accc"/><path d="M459.915 305.679C459.731 305.679 459.547 305.617 459.409 305.495L451.069 298.413C450.732 298.137 450.701 297.631 450.977 297.294 451.269 296.956 451.759 296.926 452.096 297.202L460.436 304.284C460.773 304.56 460.804 305.066 460.528 305.403 460.36 305.587 460.13 305.679 459.915 305.679z" fill="#8a91e6"/><path d="M452.817 305.679C452.633 305.679 452.464 305.618 452.311 305.495 451.973 305.219 451.927 304.714 452.203 304.376L458.044 297.294C458.32 296.957 458.826 296.911 459.163 297.187 459.501 297.463 459.547 297.969 459.271 298.306L453.43 305.388C453.276 305.587 453.046 305.679 452.817 305.679z" fill="#8a91e6"/><path d="M196.016 335.862H152.002L150.975 330.022h44.014L196.016 335.862z" fill="#2a2e5e"/><path d="M199.878 357.737H155.864l-4.124-23.361h44.014l4.124 23.361z" fill="#ffa800"/><path d="M200.906 363.562H156.892L155.865 357.737h44.014L200.906 363.562z" fill="#2a2e5e"/><path d="M204.753 385.437H160.755l-4.124-23.346h44.014L204.753 385.437z" fill="#ffa800"/><path d="M444.984 305.725h-7.19C437.411 305.725 437.089 305.449 437.012 305.066L435.74 297.877C435.694 297.647 435.755 297.417 435.908 297.233 436.061 297.049 436.276 296.957 436.521 296.957h7.19C444.095 296.957 444.417 297.233 444.493 297.616L445.766 304.806C445.812 305.035 445.75 305.265 445.597 305.449 445.444 305.633 445.229 305.725 444.984 305.725zM438.468 304.146H444.049L443.052 298.536H437.472L438.468 304.146z" fill="#8a91e6"/><path d="M502.598 503.625H139.494L137.348 491.377H500.436L502.598 503.625z" fill="#2a2e5e"/><path d="M154.485 491.377h-17.14L106.623 313.574h17.14l30.722 177.803z" fill="#2a2e5e"/><path d="M473.836 356.327H419.06L418.217 351.544h54.776L473.836 356.327z" fill="#2a2e5e"/><path d="M478.389 382.218H423.628L422.785 377.435h54.761L478.389 382.218z" fill="#2a2e5e"/><path d="M482.959 408.094H428.183L427.34 403.311h54.776L482.959 408.094z" fill="#2a2e5e"/><path d="M487.525 433.985H432.749L431.906 429.202h54.776L487.525 433.985z" fill="#2a2e5e"/><path d="M431.463 464.214H223.919L200.264 330.022H407.808l23.655 134.192z" fill="#fff"/><path d="M163.92 545.466 155.604 543.831 164.842 524.069 171.923 528.087 163.92 545.466z" fill="#d5d1de"/><path d="M186.938 555.887C186.869 553.417 185.929 546.232 180.71 546.232L172.045 546.11 170.219 539.934C169.592 537.882 167.522 537.69 167.087 538.577 165.608 541.657 165.191 543.083 163.416 543.17L156.787 543.083C153.899 543.083 154.056 544.771 154.038 546.91 154.038 546.91 153.969 554.165 153.969 555.904h32.969V555.887z" fill="#2a2e5e"/><path d="M177.924 555.887h9.012C186.866 553.417 185.927 546.232 180.708 546.232L177.924 546.197V555.887v0z" fill="#373c7a"/><path d="M187.112 558.114H154.143L153.986 555.748h32.97L187.112 558.114z" fill="#373c7a"/><path d="M156.666 531.01 171.924 534.785c46.435-87.992-20.182-70.63-65.713-33.245C110.787 505.663 115.345 509.803 119.921 513.926c17.206-15.691 43.512-30.2 50.976-24.842C175.386 492.302 168.966 507.298 156.666 531.01z" fill="#2a2e5e"/><path d="M141.928 481.43C139.301 481.43 136.726 480.96 134.256 479.933 122.634 475.115 117.275 459.788 118.302 434.354 118.389 432.075 120.32 430.301 122.616 430.388 124.895 430.475 126.687 432.406 126.583 434.702 125.731 455.683 129.576 469.026 137.422 472.279 144.973 475.41 157.517 469.426 168.634 457.387 170.183 455.7 172.81 455.596 174.498 457.161 176.185 458.71 176.29 461.336 174.724 463.024 165.885 472.592 153.411 481.43 141.928 481.43z" fill="#fe9b88"/><path d="M81.7473 473.01 81.4863 430.353 215.226 430.458 215.487 473.097 81.7473 473.01z" fill="#d5d1de"/><path d="M92.7595 472.949 92.4961 430.293 33.3772 430.658 33.6407 473.314 92.7595 472.949z" fill="#d5d1de"/><path d="M256.095 449.768l-40.868-19.311L215.488 473.097l40.607-17.519v-5.81z" fill="#8a91e6"/><path d="M214.028 430.614C222.71 430.562 222.971 472.836 214.289 472.888 205.59 472.957 205.329 430.666 214.028 430.614z" fill="#d5d1de"/><path d="M249.779 446.775C250.301 451.455 250.319 453.543 249.901 458.257L257.956 455.317C259.992 454.204 260.044 451.299 258.061 450.098L249.779 446.775z" fill="#7e72ac"/><path d="M33.3822 430.666C42.0639 430.614 42.3249 473.253 33.6432 473.323 24.9615 473.358 24.7006 430.718 33.3822 430.666z" fill="#8a91e6"/><path d="M164.878 436.372h-19.59C143.566 436.372 142.174 437.764 142.174 439.486 142.174 441.209 143.566 442.6 145.288 442.6h19.59V436.372z" fill="#7e72ac"/><path d="M188.607 436.372H168.965V442.6h19.642C190.33 442.6 191.722 441.209 191.722 439.486 191.722 437.781 190.33 436.372 188.607 436.372z" fill="#7e72ac"/><path d="M164.878 434.25h-19.59C143.566 434.25 142.174 435.642 142.174 437.364 142.174 439.086 143.566 440.478 145.288 440.478h19.59V434.25z" fill="#8a91e6"/><path d="M188.607 434.25H168.965V440.478h19.642C190.33 440.478 191.722 439.086 191.722 437.364 191.722 435.642 190.33 434.25 188.607 434.25z" fill="#8a91e6"/><path d="M33.4692 444.166C36.653 444.149 36.7574 459.788 33.5735 459.806 30.3897 459.823 30.2853 444.183 33.4692 444.166z" fill="#7e72ac"/><g opacity=".05"><path opacity=".05" d="M259.404 453.491C259.735 452.273 259.282 450.864 258.047 450.116L249.783 446.793 215.23 430.475V430.927 430.475L92.5211 430.388V430.318L81.5081 430.388 33.4022 430.684C28.8613 430.718 26.7735 442.392 27.0519 453.508H259.404V453.491z" fill="#000"/></g><g opacity=".1"><path opacity=".1" d="M31.8848 649.968C31.8848 654.926 64.4019 658.927 104.522 658.927 144.642 658.927 177.159 654.909 177.159 649.968 177.159 645.01 144.642 641.009 104.522 641.009 64.4019 641.009 31.8848 645.027 31.8848 649.968z" fill="#000"/></g><path d="M91.4747 637.721H80.9141V630.675C80.9141 629.179 82.1145 627.979 83.6108 627.979H88.778C90.2743 627.979 91.4747 629.179 91.4747 630.675V637.721v0z" fill="#363a68"/><path d="M88.3752 615.523H79.3281v19.414h9.0471V615.523z" fill="#d5d1de"/><path d="M93.8938 645.271H77.0176V637.442C77.0176 636.051 78.1485 634.92 79.5403 634.92h9.0992C91.545 634.92 93.8938 637.268 93.8938 640.174V645.271z" fill="#2a2e5e"/><path d="M77.0176 645.271H93.8938L94.0678 648.263H77.1916L77.0176 645.271z" fill="#373c7a"/><path d="M89.9267 625.23c-5.02799999999999.0-7.7769.0-12.7876.0L75.1035 500.392c5.02810000000001.0 12.5093.0 17.5199.0L89.9267 625.23z" fill="#2a2e5e"/><path d="M76.5116 514.222C87.7682 518.015 123.608 514.448 123.748 514.396L125.192 492.529S83.9754 482.821 74.0411 491.537C70.6658 494.494 72.0403 512.709 76.5116 514.222z" fill="#2a2e5e"/><path d="M125.192 492.529 74.0418 491.537 72.041 427.535c0-10.925 8.8557-19.78 19.7817-19.78H109.551c10.926.0 18.181 7.25400000000002 18.181 18.179L125.192 492.529z" fill="#8a91e6"/><path d="M139.686 481.273C139.512 481.273 139.32 481.256 139.146 481.238 136.136 480.855 133.387 479.812 130.934 478.159 128.203 476.298 125.871 473.688 124.01 470.365 119.573 462.485 117.659 450.377 118.303 434.372 118.39 432.093 120.287 430.318 122.618 430.405 124.897 430.492 126.689 432.423 126.585 434.72 125.993 449.159 127.559 459.788 131.23 466.312 132.465 468.504 133.927 470.174 135.58 471.305 136.971 472.244 138.485 472.801 140.207 473.027 142.469 473.323 144.07 475.393 143.792 477.672 143.531 479.742 141.739 481.273 139.686 481.273z" fill="#fe9b88"/><path d="M128.376 445.923S117.154 446.393 111.291 445.854C109.221 440.269 109.221 433.798 110.682 428.022 112.144 422.246 115.397 416.94 119.868 413.009 121.138 411.895 130.673 436.529 128.376 445.923z" fill="#8a91e6"/><path d="M115.812 389.402H113.828V380.268h2.61L118.369 385.592C118.995 387.297 117.882 389.228 116.072 389.384 115.985 389.384 115.898 389.402 115.812 389.402z" fill="#fe8d77"/><path d="M108.438 405.006H98.6777V371.187s17.5543.0 17.7813.0C116.754 371.187 116.911 394.429 116.911 394.429 116.894 402.223 113.414 405.006 108.438 405.006z" fill="#fe9b88"/><path d="M116.824 378.268H116.006C115.71 378.268 115.467 378.024 115.467 377.728 115.467 377.433 115.71 377.189 116.006 377.189H116.824C117.12 377.189 117.363 377.433 117.363 377.728 117.363 378.024 117.137 378.268 116.824 378.268z" fill="#310047"/><path d="M112.665 356H95.7364C95.371 356 95.023 356.035 94.6577 356.07 94.2053 356.035 93.7356 356 93.2658 356 83.5751 356 75.7285 363.846 75.7285 373.536v41.769c0 9.69 7.84660000000001 17.536 17.5373 17.536 9.6912.0 17.5372-7.846 17.5372-17.536V376.511C110.803 375.328 111.76 374.371 112.943 374.371c5.533.0 9.917-4.87099999999998 9.099-10.56C121.399 359.271 117.275 356 112.665 356z" fill="#373c7a"/><path d="M511.422 607.176 511.324 615.407 529.014 615.617 529.112 607.386 511.422 607.176z" fill="#d5d1de"/><path d="M500.996 595.407C501.594 595.484 510.332 591.361 510.271 596.113L510.286 601.462 515.897 603.195C517.032 603.547 517.752 604.329 517.768 605.187L517.783 606.46C517.783 606.766 517.599 606.889 517.246 606.904 514.288 607.073 512.877 607.318 512.877 608.897V615.381C512.847 618.018 511.314 617.849 509.367 617.849 509.367 617.849 502.759 617.834 501.18 617.803L500.996 595.407z" fill="#373c7a"/><path d="M501.303 617.819 501.564 596.021 510.272 596.128V593.583C510.333 588.923 504.017 587.942 501.656 587.82V587.804L499.356 587.774 499.004 617.803 501.303 617.819z" fill="#2a2e5e"/><path d="M524.975 628.709 530.027 635.208l13.968-10.856L538.942 617.853l-13.967 10.856z" fill="#d5d1de"/><path d="M509.535 626.005C510.041 625.698 514.318 617.022 517.231 620.777L520.573 624.947 526.046 622.801C527.15 622.372 528.208 622.525 528.744 623.199L529.557 624.18C529.756 624.426 529.68 624.625 529.419 624.855 527.211 626.817 526.261 627.905 527.242 629.132L531.289 634.206C532.899 636.29 531.596 637.103 530.078 638.314 530.078 638.314 524.896 642.422 523.639 643.388l-14.104-17.383z" fill="#373c7a"/><path d="M523.732 643.342l-13.384-17.215L517.232 620.777 515.637 618.785C512.77 615.106 507.221 618.263 505.305 619.643L505.289 619.628 503.465 621.038 521.892 644.737 523.732 643.342z" fill="#2a2e5e"/><path d="M635.551 609.388h43.477L680.546 587.298l-44.474 6.745L635.551 609.388z" fill="#373c7a"/><path d="M647.281 618.003C647.971 618.217 646.668 606 655.682 601.953 598.959 560.84 604.862 560.319 542.957 610.031L553.504 622.724C609.43 578.423 592.383 582.929 647.281 618.003z" fill="#373c7a"/><path d="M570.688 537.341C569.384 537.341 568.112 536.651 567.407 535.44L565.613 532.313C564.571 530.504 565.199 528.204 567.008 527.162 568.817 526.12 571.117 526.748 572.159 528.557L573.953 531.699C574.98 533.508 574.352 535.808 572.543 536.85 571.975 537.187 571.331 537.341 570.688 537.341z" fill="#fe9b88"/><path d="M668.098 618.202H525.34V602.873L683.244 599.807V602.873C683.229 611.243 676.453 618.202 668.098 618.202z" fill="#2a2e5e"/><path d="M610.347 573.012C593.346 567.999 571.346 586.869 533.449 617.313l10.548 12.692C577.08 603.793 594.127 587.39 606.146 591.575L610.347 573.012z" fill="#373c7a"/><path d="M683.23 604.406 637.238 607.472V584.478H683.23v19.928z" fill="#2a2e5e"/><path d="M662.303 543.932C649.809 544.039 639.599 533.999 639.492 521.505L639.216 489.207C639.108 476.714 649.15 466.504 661.629 466.397 674.123 466.29 684.333 476.33 684.441 488.808L684.717 521.107C684.839 533.616 674.798 543.825 662.303 543.932z" fill="#0e3266"/><path d="M623.502 550.57C622.597 550.57 621.769 550.508 621.018 550.416 606.73 548.623 594.711 532.803 592.473 519.145L599.678 517.964C601.456 528.772 611.36 541.847 621.938 543.181 631.412 544.377 637.544 535.179 641.009 527.254L647.693 530.182C640.197 547.289 630.124 550.57 623.502 550.57z" fill="#fe8d77"/><path d="M654.117 533.876C652.016 540.912 649.134 544.085 643.63 548.929 635.72 546.446 633.359 543.702 632.117 538.322 634.539 534.06 636.594 529.569 638.249 524.954 644.796 526.809 648.49 530.059 654.117 533.876z" fill="#2a95ad"/><path d="M687.828 593.675S663.299 599.807 637.237 589.077L636.762 531.224C636.93 521.276 645.148 513.35 655.097 513.519L671.24 513.795C681.19 513.964 689.115 522.18 688.947 532.129L687.828 593.675z" fill="#39accc"/><path d="M663.085 497.807 669.217 497.914 668.88 516.738C668.819 520.34 665.844 523.192 662.257 523.13 658.654 523.069 655.803 520.095 655.864 516.508L656.033 507.311 663.085 497.807z" fill="#fe8d77"/><path d="M644.213 487.965 644.412 496.825C642.695 496.396 640.993 494.848 641.024 493.162L641.054 491.414C641.085 489.728 642.496 488.348 644.213 487.965z" fill="#fe8d77"/><path d="M644.168 500.443 643.969 487.291C644.107 480.76 645.9 476.898 651.588 477.112L669.755 477.388 669.709 498.895C669.433 515.358 644.49 515.558 644.168 500.443z" fill="#fe9b88"/><path d="M649.685 492.564C649.67 493.284 649.087 493.852 648.367 493.836 647.646 493.821 647.079 493.238 647.094 492.518 647.109 491.797 647.692 491.23 648.413 491.246 649.118 491.261 649.685 491.843 649.685 492.564z" fill="#082951"/><path d="M659.865 492.717C659.849 493.438 659.267 494.005 658.546 493.99 657.826 493.974 657.258 493.392 657.274 492.671 657.289 491.951 657.872 491.384 658.592 491.399 659.313 491.414 659.88 491.997 659.865 492.717z" fill="#082951"/><path d="M660.724 497.331C660.034 500.98 656.523 503.693 652.997 503.647 649.471 503.601 647.126 500.796 646.543 497.117L660.724 497.331z" fill="#eff4df"/><path d="M653.134 496.764C652.398 496.749 651.509 496.657 651.126 496.059 650.651 495.323 651.08 494.281 651.801 492.564 651.969 492.15 652.153 491.706 652.352 491.215 652.444 490.985 652.705 490.878 652.935 490.97 653.165 491.062 653.272 491.322 653.18 491.552 652.981 492.043 652.797 492.503 652.613 492.917 652.092 494.158 651.632 495.247 651.862 495.568 651.923 495.676 652.184 495.86 653.134 495.875 653.38 495.875 653.579 496.09 653.579 496.335 653.579 496.565 653.38 496.764 653.134 496.764z" fill="#fe8d77"/><path d="M670.979 488.226 669.599 488.21 669.461 497.255 670.841 497.27C672.864 497.301 674.52 495.691 674.551 493.668L674.581 491.92C674.597 489.912 672.987 488.256 670.979 488.226z" fill="#fe9b88"/><path d="M668.879 485.129 656.048 484.455C653.533 484.302 651.617 482.155 651.77 479.641 651.924 477.127 651.878 471.854 654.376 471.992L664.157 475.794C666.672 475.947 668.588 478.093 668.435 480.607 668.297 483.136 671.393 485.283 668.879 485.129z" fill="#0e3266"/><path d="M659.879 489.13S659.863 489.13 659.848 489.13L657.441 488.992C657.196 488.977 657.012 488.762 657.012 488.517 657.027 488.272 657.196 488.088 657.487 488.088L659.894 488.226C660.139 488.241 660.323 488.456 660.323 488.701 660.308 488.946 660.109 489.13 659.879 489.13z" fill="#0e3266"/><path d="M649.347 488.762S649.332 488.762 649.317 488.762L646.91 488.624C646.664 488.609 646.48 488.394 646.48 488.149 646.496 487.904 646.68 487.751 646.956 487.72L649.363 487.858C649.608 487.873 649.792 488.088 649.792 488.333 649.777 488.578 649.577 488.762 649.347 488.762z" fill="#0e3266"/><path d="M666.458 476.284 666.259 489.897C666.213 492.671 668.435 494.971 671.21 495.001 673.97 495.047 676.837 495.691 676.867 492.932L676.407 481.45C676.453 478.676 674.23 476.376 671.456 476.346L666.458 476.284z" fill="#0e3266"/><path d="M661.581 528.603C669.584 528.741 676.252 522.716 677.08 514.914 675.256 514.255 673.294 513.856 671.224 513.81L655.081 513.534C652.061 513.488 649.209 514.178 646.68 515.45 647.737 522.762 653.962 528.465 661.581 528.603z" fill="#fe8d77"/><path d="M641.752 471.297 494.297 430 461.001 548.866l147.455 41.297L641.752 471.297z" fill="#8a91e6"/><path d="M630.436 478.604l-130.288-36.49L472.293 541.556 602.581 578.045l27.855-99.441z" fill="#fff"/><path d="M611.866 545.036 593.562 482.723 537.973 533.386 523.21 483.075 476.881 525.307 472.312 541.587 602.607 578.07 611.866 545.036z" fill="#ffa800"/><path d="M631.212 578.76c-8.55499999999995.0-18.044-1.548-28.439-4.63C600.78 573.533 599.631 571.433 600.229 569.44 600.826 567.447 602.927 566.297 604.92 566.895 626.704 573.379 643.829 572.567 655.786 564.488 670.243 554.739 673.371 537.065 674.045 529.921 674.244 527.852 676.053 526.319 678.154 526.518 680.223 526.717 681.756 528.557 681.557 530.626 680.775 538.843 677.127 559.184 660.002 570.743 652.107 576.093 642.48 578.76 631.212 578.76z" fill="#fe9b88"/><path d="M678.387 518.026C678.142 518.225 666.215 545.358 666.215 545.342 667.871 550.202 674.279 552.976 679.154 552.348 684.106 551.704 686.313 527.821 686.865 525.828L678.387 518.026z" fill="#39accc"/><path d="M359.759 234.353C352.875 234.353 331.642 230.336 325.74 182.555L332.992 181.666C337.161 215.421 349.579 227.209 359.943 227.056 370.444 226.872 379.673 215.222 380.961 200.536L388.227 201.165c-1.625 18.656-13.736 32.927-28.162 33.188C359.958 234.353 359.866 234.353 359.759 234.353z" fill="#fe8d77"/><path d="M318.29 181.804C316.665 188.963 319.041 195.846 321.464 202.774 326.247 204.2 334.372 201.027 336.242 198.666 334.587 194.604 335.69 188.334 336.564 182.816 329.957 181.222 325.082 181.252 318.29 181.804z" fill="#cf8800"/><path d="M261.998 218.242s26.568 18.226 45.148 15.191l27.58-45.39C339.463 179.29 336.213 168.345 327.459 163.608L313.263 155.928C304.51 151.192 293.564 154.442 288.826 163.195l-26.828 55.047z" fill="#ffa800"/><path d="M329.082 144.386 323.257 141.228 313.568 159.117C311.713 162.535 312.985 166.812 316.404 168.652 319.822 170.507 324.1 169.234 325.939 165.816l4.738-8.738L329.082 144.386z" fill="#fe8d77"/><path d="M349.394 149.506l-4.798 8.078C346.405 158.075 348.781 157.538 349.639 155.959L350.529 154.334C351.372 152.755 350.789 150.747 349.394 149.506z" fill="#fe8d77"/><path d="M342.941 161.048l7.036-12.033C353.258 142.914 353.611 138.407 348.245 135.648L331.32 126.435l-11.161 19.867C311.85 161.646 334.769 174.829 342.941 161.048z" fill="#fe9b88"/><path d="M341.96 150.885C341.592 151.544 341.837 152.387 342.512 152.74 343.171 153.108 344.014 152.863 344.367 152.188 344.735 151.529 344.49 150.686 343.815 150.333 343.156 149.981 342.328 150.226 341.96 150.885z" fill="#082951"/><path d="M332.47 145.719C332.102 146.378 332.347 147.221 333.022 147.574 333.681 147.942 334.524 147.697 334.877 147.022 335.245 146.363 334.999 145.52 334.325 145.167 333.666 144.815 332.838 145.06 332.47 145.719z" fill="#082951"/><path d="M329.281 149.536C328.008 153.261 329.833 157.599 333.113 159.393 336.394 161.171 340.027 159.807 342.465 156.726l-13.184-7.19z" fill="#eff4df"/><path d="M338.402 152.832C338.004 152.832 337.528 152.663 336.992 152.326 336.762 152.188 336.701 151.897 336.839 151.667S337.268 151.376 337.498 151.514C338.004 151.82 338.372 151.943 338.556 151.851 339.046 151.59 339.153 149.858 339.245 148.172 339.261 147.911 339.506 147.697 339.751 147.727 340.012 147.743 340.211 147.973 340.196 148.233 340.058 150.625 339.966 152.203 339 152.709 338.816 152.786 338.617 152.832 338.402 152.832z" fill="#fe8d77"/><path d="M336.853 143.604C336.776 143.604 336.715 143.588 336.638 143.558L334.354 142.439C334.124 142.316 334.017 142.04 334.139 141.81 334.262 141.58 334.538 141.488 334.768 141.596L337.052 142.715C337.282 142.837 337.389 143.113 337.267 143.343 337.19 143.512 337.021 143.604 336.853 143.604z" fill="#0e3266"/><path d="M346.757 148.754C346.68 148.754 346.619 148.739 346.542 148.708L344.258 147.589C344.028 147.467 343.921 147.191 344.043 146.961 344.166 146.731 344.442 146.624 344.672 146.746L346.956 147.865C347.186 147.988 347.294 148.264 347.171 148.494 347.11 148.647 346.941 148.754 346.757 148.754z" fill="#0e3266"/><path d="M336.057 127.171 330.201 138.331C328.775 140.921 323.885 144.248 320.558 142.439 318.856 141.519 313.398 139.649 316.603 132.919 317.798 130.405 318.994 128.413 320.665 125.469 322.535 122.204 326.767 122.128 330.063 123.921L336.057 127.171z" fill="#0e3266"/><path d="M325.202 136.154 326.735 136.982 322.152 145.397 320.619 144.57C318.38 143.359 317.415 140.845 318.426 138.974L319.315 137.35c1.012-1.886 3.649-2.423 5.887-1.196z" fill="#fe9b88"/><path d="M356.475 129.547 339.796 120.227C336.163 118.203 331.471 119.077 329.095 122.511 327.194 125.255 327.255 128.673 328.865 131.264 328.85 131.294 328.819 131.31 328.804 131.34l-5.642 9.566C322.564 141.918 323.009 143.267 324.159 143.941 325.308 144.6 326.719 144.324 327.301 143.328L331.195 136.721C331.931 135.479 333.526 135.035 334.798 135.74l13.644 7.619C352.152 145.428 356.966 144.447 359.281 140.875 361.81 136.951 360.477 131.785 356.475 129.547z" fill="#0e3266"/><path d="M385.149 202.744C384.153 202.744 383.156 202.345 382.421 201.579 380.979 200.077 381.041 197.685 382.543 196.244L385.149 193.761C386.652 192.32 389.043 192.381 390.484 193.884 391.925 195.386 391.864 197.777 390.362 199.218L387.74 201.717C387.02 202.391 386.085 202.744 385.149 202.744z" fill="#fe9b88"/><path d="M325.682 253.407l41.852 33.923L475.017 154.702 474.925 150.303l-41.776-29.524L325.59 249.023 325.682 253.407z" fill="#d5d1de"/><path d="M325.565 249.034l41.871 33.919L474.904 150.314l-41.87-33.919L325.565 249.034z" fill="#fff"/><path d="M454.274 148.463C451.944 151.33 452.388 155.53 455.255 157.86 458.122 160.19 462.323 159.745 464.653 156.879 466.983 154.012 466.539 149.812 463.672 147.482 460.805 145.152 456.589 145.597 454.274 148.463z" fill="#0e3266"/><path d="M459.441 161.094C457.525 161.094 455.67 160.435 454.152 159.209 452.405 157.799 451.316 155.775 451.071 153.537 450.841 151.299 451.485 149.107 452.911 147.359 455.839 143.757 461.158 143.19 464.761 146.118 466.509 147.528 467.597 149.552 467.843 151.79 468.073 154.028 467.429 156.22 466.003 157.967 464.592 159.715 462.569 160.803 460.331 161.048 460.039 161.079 459.748 161.094 459.441 161.094zM455.624 149.552C454.796 150.579 454.413 151.866 454.551 153.169 454.689 154.488 455.333 155.653 456.36 156.496 457.387 157.323 458.675 157.707 459.978 157.569 461.296 157.431 462.462 156.787 463.305 155.76 464.133 154.733 464.516 153.445 464.378 152.142 464.24 150.824 463.596 149.659 462.569 148.816 460.453 147.114 457.341 147.436 455.624 149.552z" fill="#373c7a"/><path d="M400.309 162.645l36.152 29.287 17.246-21.285-36.153-29.287L400.309 162.645z" fill="#ffa800"/><path d="M433.288 194.527C433.088 194.527 432.889 194.466 432.72 194.328l-21.83-17.69C410.506 176.332 410.445 175.764 410.752 175.381 411.058 174.998 411.626 174.937 412.009 175.243l21.846 17.69C434.238 193.24 434.299 193.807 433.993 194.19 433.809 194.42 433.548 194.527 433.288 194.527z" fill="#a3cfd1"/><path d="M378.187 189.934l36.153 29.287 17.245-21.285-36.152-29.287-17.246 21.285z" fill="#8a91e6"/><path d="M411.166 221.829C410.967 221.829 410.768 221.767 410.599 221.629L388.753 203.94C388.37 203.633 388.308 203.066 388.615 202.683 388.922 202.299 389.489 202.238 389.872 202.545l21.846 17.689C412.101 220.541 412.163 221.108 411.856 221.491 411.687 221.706 411.427 221.829 411.166 221.829z" fill="#a3cfd1"/><path d="M356.078 217.232l36.152 29.286 17.246-21.284-36.152-29.287-17.246 21.285z" fill="#373c7a"/><path d="M389.057 249.115C388.858 249.115 388.659 249.053 388.49 248.915l-21.831-17.69C366.276 230.919 366.215 230.352 366.521 229.968 366.828 229.585 367.395 229.524 367.778 229.83l21.831 17.69C389.992 247.827 390.054 248.394 389.747 248.777 389.578 248.992 389.318 249.115 389.057 249.115z" fill="#a3cfd1"/><path d="M333.967 244.509l36.152 29.287 17.246-21.284-36.153-29.287-17.245 21.284z" fill="#39accc"/><path d="M366.952 276.401C366.752 276.401 366.553 276.339 366.384 276.201l-21.83-17.69C344.171 258.205 344.109 257.638 344.416 257.254 344.722 256.871 345.29 256.81 345.673 257.116l21.831 17.69C367.887 275.113 367.948 275.68 367.642 276.063 367.473 276.293 367.212 276.401 366.952 276.401z" fill="#a3cfd1"/><path d="M225.108 586.927 225.905 640.795 396.598 638.255 399.916 635.364 395.792 584.375 228.414 584.046 225.108 586.927z" fill="#d5d1de"/><path d="M228.391 584.034 229.203 637.913 399.896 635.357 399.084 581.478 228.391 584.034z" fill="#fff"/><path d="M388.09 618.337C384.396 618.386 381.457 621.42 381.507 625.114 381.557 628.808 384.591 631.747 388.285 631.697 391.979 631.648 394.917 628.614 394.867 624.92 394.818 621.226 391.774 618.276 388.09 618.337z" fill="#0e3266"/><path d="M381.707 630.4C380.478 628.929 379.795 627.083 379.763 625.132 379.725 622.886 380.58 620.754 382.14 619.131 383.711 617.52 385.806 616.608 388.061 616.582 392.703 616.52 396.549 620.239 396.611 624.881 396.649 627.126 395.794 629.259 394.234 630.882 392.664 632.493 390.569 633.404 388.313 633.431 386.068 633.469 383.935 632.613 382.312 631.053 382.102 630.849 381.903 630.635 381.707 630.4zM388.118 620.07C386.799 620.093 385.565 620.625 384.654 621.566 383.731 622.517 383.249 623.758 383.261 625.087 383.284 626.406 383.815 627.64 384.757 628.551 385.708 629.475 386.949 629.956 388.278 629.945 389.597 629.922 390.831 629.39 391.742 628.449 392.665 627.498 393.147 626.257 393.135 624.928 393.085 622.214 390.843 620.032 388.118 620.07z" fill="#373c7a"/><path d="M342.608 586.012 343.309 632.533 370.7 632.123 369.999 585.602 342.608 586.012z" fill="#ffa800"/><path d="M339.282 631.761C339.154 631.608 339.073 631.416 339.071 631.198L338.651 603.103C338.641 602.612 339.037 602.202 339.528 602.191 340.018 602.181 340.429 602.577 340.44 603.068L340.869 631.174C340.879 631.665 340.483 632.076 339.992 632.086 339.698 632.092 339.449 631.961 339.282 631.761z" fill="#a3cfd1"/><path d="M307.483 586.53 308.184 633.051 335.575 632.641 334.874 586.12 307.483 586.53z" fill="#8a91e6"/><path d="M304.149 632.287C304.021 632.134 303.94 631.942 303.938 631.724L303.509 603.618C303.498 603.127 303.894 602.716 304.385 602.706 304.876 602.695 305.286 603.091 305.297 603.582L305.726 631.689C305.737 632.18 305.341 632.59 304.85 632.601 304.577 632.609 304.316 632.487 304.149 632.287z" fill="#a3cfd1"/><path d="M272.36 587.063 273.061 633.585 300.452 633.174 299.751 586.653 272.36 587.063z" fill="#373c7a"/><path d="M269.034 632.813C268.906 632.66 268.825 632.468 268.823 632.25L268.403 604.155C268.393 603.664 268.789 603.253 269.28 603.243 269.77 603.233 270.181 603.629 270.191 604.119L270.611 632.214C270.621 632.705 270.225 633.116 269.735 633.126 269.462 633.134 269.201 633.013 269.034 632.813z" fill="#a3cfd1"/><path d="M237.248 587.581 237.949 634.102 265.34 633.692 264.64 587.171 237.248 587.581z" fill="#39accc"/><path d="M233.92 633.341C233.792 633.188 233.712 632.996 233.71 632.778L233.29 604.683C233.28 604.192 233.676 603.781 234.166 603.771 234.657 603.761 235.068 604.157 235.078 604.647L235.498 632.742C235.508 633.233 235.112 633.644 234.621 633.654 234.337 633.672 234.087 633.541 233.92 633.341z" fill="#a3cfd1"/><path d="M344.062 242.186C343.786 242.186 343.495 242.155 343.219 242.094 318.751 236.514 302.531 226.06 295.019 211.022 285.791 192.55 292.613 173.036 295.97 165.494 296.813 163.593 299.051 162.735 300.952 163.578S303.712 166.659 302.869 168.56C299.941 175.105 293.992 192.044 301.78 207.634 308.234 220.541 322.737 229.662 344.905 234.72 346.944 235.18 348.201 237.204 347.741 239.243 347.343 240.99 345.794 242.186 344.062 242.186z" fill="#fe9b88"/><path d="M304.953 156.082C305.061 156.373 304.8 187.936 304.8 187.936 300.968 191.354 290.205 192.335 286.266 189.377 282.264 186.372 293.226 160.711 293.732 158.703L304.953 156.082z" fill="#ffa800"/><path d="M325.515 411.04C336.567 398.971 333.858 378.504 319.465 365.326 305.072 352.148 284.445 351.249 273.393 363.318 262.34 375.388 265.049 395.854 279.442 409.032 293.835 422.21 314.462 423.109 325.515 411.04z" fill="#4929cf"/><path d="M385.946 443.673 326.203 355.331l-28.592 88.342h88.335z" fill="#ffa800"/><path d="M331.813 387.2C330.541 380.011 327.015 373.358 322.093 367.992L305.398 419.56C323.151 419.407 334.956 404.982 331.813 387.2z" fill="#8a91e6"/><path d="M264.45 351.514 261.369 355.254 256.969 351.514 260.05 347.773 264.45 351.514z" fill="#401671"/><path d="M270.721 387.047 267.64 390.787 263.24 387.047 266.322 383.306 270.721 387.047z" fill="#401671"/><path d="M276.977 422.58 273.896 426.32 269.496 422.58 272.578 418.839 276.977 422.58z" fill="#401671"/><path d="M272.991 421.599C272.5 421.599 272.056 421.246 271.964 420.74L260.19 354.012C260.098 353.445 260.466 352.909 261.033 352.801 261.585 352.694 262.137 353.077 262.244 353.644L274.018 420.372C274.11 420.939 273.742 421.476 273.175 421.583 273.113 421.599 273.052 421.599 272.991 421.599z" fill="#401671"/><path d="M382.588 365.647H368.423L365.924 351.483h14.165L382.588 365.647z" fill="#4929cf"/><path d="M399.36 365.647H385.194L382.695 351.483h14.166L399.36 365.647z" fill="#ffa800"/><path d="M385.623 382.908H371.458L368.959 368.744h14.165L385.623 382.908z" fill="#ffa800"/><path d="M402.41 382.908H388.245L385.746 368.744h14.165L402.41 382.908z" fill="#4929cf"/><path d="M388.674 400.184H374.509L372.01 386.02h14.165L388.674 400.184z" fill="#4929cf"/><path d="M405.446 400.184H391.28L388.781 386.02h14.166L405.446 400.184z" fill="#ffa800"/><path d="M409.602 408.431H372.471L371.582 403.388h37.131L409.602 408.431z" fill="#24004d"/></g><defs><clipPath id="clip0_534_1310"><rect width="737" height="685" fill="#fff"/></clipPath></defs></svg>